<svg width="58" height="65" viewBox="0 0 58 65" fill="none" xmlns="http://www.w3.org/2000/svg">
<path d="M17.6522 30C14.3081 30 11.1011 28.683 8.73648 26.3388C6.37189 23.9946 5.04348 20.8152 5.04348 17.5V7.5C5.04348 6.83696 5.30916 6.20107 5.78208 5.73223C6.25499 5.26339 6.89641 5 7.56521 5H10.087C10.7558 5 11.3972 4.73661 11.8701 4.26777C12.343 3.79893 12.6087 3.16304 12.6087 2.5C12.6087 1.83696 12.343 1.20107 11.8701 0.732233C11.3972 0.263392 10.7558 0 10.087 0H7.56521C5.55879 0 3.63455 0.790177 2.2158 2.1967C0.797047 3.60322 0 5.51088 0 7.5V17.5C0.00324149 20.3243 0.697946 23.1057 2.02445 25.6052C3.35095 28.1047 5.26961 30.2477 7.61565 31.85C9.86965 33.8201 11.6976 36.2225 12.9892 38.9123C14.2808 41.6021 15.0092 44.5234 15.1304 47.5C15.1304 52.1413 16.9902 56.5925 20.3006 59.8744C23.6111 63.1563 28.1009 65 32.7826 65C37.4642 65 41.9541 63.1563 45.2646 59.8744C48.575 56.5925 50.4348 52.1413 50.4348 47.5V44.65C52.8119 44.0415 54.8836 42.5944 56.2615 40.58C57.6394 38.5655 58.2289 36.122 57.9196 33.7075C57.6102 31.293 56.4232 29.0732 54.5811 27.4642C52.7389 25.8552 50.3681 24.9675 47.913 24.9675C45.4579 24.9675 43.0871 25.8552 41.245 27.4642C39.4028 29.0732 38.2158 31.293 37.9065 33.7075C37.5971 36.122 38.1866 38.5655 39.5646 40.58C40.9425 42.5944 43.0141 44.0415 45.3913 44.65V47.5C45.3913 50.8152 44.0629 53.9946 41.6983 56.3388C39.3337 58.683 36.1266 60 32.7826 60C29.4386 60 26.2315 58.683 23.8669 56.3388C21.5023 53.9946 20.1739 50.8152 20.1739 47.5C20.3016 44.5197 21.0378 41.5961 22.3382 38.9061C23.6385 36.2161 25.4759 33.8157 27.7391 31.85C30.0758 30.2421 31.9847 28.0967 33.3022 25.5975C34.6198 23.0984 35.3067 20.3199 35.3043 17.5V7.5C35.3043 5.51088 34.5073 3.60322 33.0885 2.1967C31.6698 0.790177 29.7455 0 27.7391 0H25.2174C24.5486 0 23.9072 0.263392 23.4342 0.732233C22.9613 1.20107 22.6956 1.83696 22.6956 2.5C22.6956 3.16304 22.9613 3.79893 23.4342 4.26777C23.9072 4.73661 24.5486 5 25.2174 5H27.7391C28.4079 5 29.0493 5.26339 29.5223 5.73223C29.9952 6.20107 30.2609 6.83696 30.2609 7.5V17.5C30.2609 19.1415 29.9347 20.767 29.3011 22.2835C28.6674 23.8001 27.7387 25.1781 26.5679 26.3388C25.397 27.4996 24.0071 28.4203 22.4773 29.0485C20.9475 29.6767 19.308 30 17.6522 30ZM47.913 40C46.5754 40 45.2926 39.4732 44.3467 38.5355C43.4009 37.5979 42.8695 36.3261 42.8695 35C42.8695 33.6739 43.4009 32.4021 44.3467 31.4645C45.2926 30.5268 46.5754 30 47.913 30C49.2506 30 50.5335 30.5268 51.4793 31.4645C52.4251 32.4021 52.9565 33.6739 52.9565 35C52.9565 36.3261 52.4251 37.5979 51.4793 38.5355C50.5335 39.4732 49.2506 40 47.913 40Z" fill="#065099"/>
</svg>
