<svg width="108" height="16" viewBox="0 0 108 16" fill="none" xmlns="http://www.w3.org/2000/svg">
<g clip-path="url(#clip0_131_412)">
<path d="M6.0481 5.18402H1.92594V11.9709H0V3.44629H7.97405V11.9709H6.0481V5.18402Z" fill="#FF4A37"/>
<path d="M9.84814 3.44672H11.7741V4.38115C12.1683 4.02049 12.5906 3.7418 13.0411 3.54508C13.4917 3.34836 13.9985 3.25 14.5616 3.25C15.1923 3.25 15.7724 3.36475 16.3018 3.59426C16.8424 3.81284 17.3041 4.12431 17.687 4.52869C18.07 4.92213 18.3685 5.3921 18.5825 5.9385C18.7965 6.47405 18.9034 7.05875 18.9034 7.6926C18.9034 8.34835 18.7852 8.94945 18.5487 9.4959C18.3234 10.0314 18.0137 10.4959 17.6195 10.8893C17.2253 11.2718 16.7523 11.5724 16.2004 11.791C15.6598 12.0096 15.0797 12.1188 14.4603 12.1188C13.9084 12.1188 13.4128 12.0369 12.9736 11.8729C12.5343 11.709 12.1345 11.4795 11.7741 11.1845V15.25H9.84814V3.44672ZM14.1731 10.3812C14.556 10.3812 14.9108 10.3211 15.2374 10.2008C15.5753 10.0806 15.8681 9.90575 16.1159 9.67625C16.3637 9.4358 16.5551 9.15165 16.6903 8.82375C16.8367 8.48495 16.91 8.10245 16.91 7.67625C16.91 7.2828 16.848 6.92215 16.7241 6.59425C16.6002 6.25545 16.42 5.9713 16.1835 5.7418C15.9582 5.50135 15.6879 5.31555 15.3725 5.18445C15.0572 5.0533 14.708 4.98771 14.3251 4.98771C13.7394 4.98771 13.2213 5.1243 12.7708 5.39755C12.3316 5.67075 11.9994 5.99865 11.7741 6.38115V8.9713C11.9994 9.43035 12.3203 9.78005 12.737 10.0205C13.1538 10.261 13.6325 10.3812 14.1731 10.3812Z" fill="#FF4A37"/>
<path d="M19.9043 7.6926C19.9043 7.0478 20.0169 6.45765 20.2422 5.92215C20.4674 5.3757 20.7885 4.90573 21.2052 4.51229C21.6219 4.11885 22.1175 3.81284 22.6919 3.59426C23.2663 3.36475 23.9026 3.25 24.6009 3.25C25.2879 3.25 25.9187 3.36475 26.4931 3.59426C27.0787 3.81284 27.5799 4.11885 27.9966 4.51229C28.4134 4.90573 28.7344 5.3757 28.9596 5.92215C29.1962 6.45765 29.3144 7.0478 29.3144 7.6926C29.3144 8.33745 29.1962 8.93305 28.9596 9.4795C28.7344 10.015 28.4134 10.4795 27.9966 10.8729C27.5799 11.2664 27.0787 11.5724 26.4931 11.791C25.9187 12.0096 25.2879 12.1188 24.6009 12.1188C23.9139 12.1188 23.2832 12.0096 22.7087 11.791C22.1343 11.5724 21.6388 11.2664 21.2221 10.8729C20.8053 10.4795 20.4787 10.015 20.2422 9.4795C20.0169 8.93305 19.9043 8.33745 19.9043 7.6926ZM21.8978 7.6926C21.8978 8.07515 21.9598 8.43035 22.0837 8.7582C22.2188 9.08605 22.4047 9.3702 22.6412 9.61065C22.8777 9.8511 23.1593 10.0424 23.4859 10.1845C23.8238 10.3156 24.1954 10.3812 24.6009 10.3812C25.0064 10.3812 25.3724 10.3211 25.699 10.2008C26.0369 10.0696 26.3241 9.88935 26.5606 9.65985C26.7972 9.4194 26.983 9.13525 27.1181 8.8074C27.2533 8.4795 27.3209 8.1079 27.3209 7.6926C27.3209 7.2773 27.2477 6.90575 27.1013 6.57785C26.9661 6.23905 26.7746 5.9549 26.5269 5.7254C26.2791 5.48495 25.9918 5.30465 25.6652 5.18445C25.3386 5.0533 24.9838 4.98771 24.6009 4.98771C24.218 4.98771 23.8576 5.0533 23.5197 5.18445C23.1931 5.30465 22.9059 5.48495 22.6581 5.7254C22.4216 5.9549 22.2357 6.23905 22.1006 6.57785C21.9654 6.90575 21.8978 7.2773 21.8978 7.6926Z" fill="#FF4A37"/>
<path d="M29.8286 10.2332H30.8457C31.2412 9.74137 31.5068 9.17852 31.6424 8.54467C31.778 7.91077 31.8458 7.19492 31.8458 6.39712V3.44629H38.9314V10.2332H40.1688V13.9217H38.372V11.9709H31.6254V13.9217H29.8286V10.2332ZM36.9989 10.2332V5.18402H33.6765V7.36432C33.6765 7.88892 33.6031 8.41352 33.4561 8.93807C33.3092 9.45177 33.1058 9.88347 32.8459 10.2332H36.9989Z" fill="#3981F1"/>
<path d="M40.561 7.6926C40.561 7.0478 40.674 6.45765 40.9001 5.92215C41.126 5.3757 41.4481 4.90573 41.8662 4.51229C42.2844 4.11885 42.7816 3.81284 43.3579 3.59426C43.9343 3.36475 44.5728 3.25 45.2734 3.25C45.9627 3.25 46.5956 3.36475 47.1719 3.59426C47.7596 3.81284 48.2625 4.11885 48.6806 4.51229C49.0987 4.90573 49.4208 5.3757 49.6468 5.92215C49.8841 6.45765 50.0028 7.0478 50.0028 7.6926C50.0028 8.33745 49.8841 8.93305 49.6468 9.4795C49.4208 10.015 49.0987 10.4795 48.6806 10.8729C48.2625 11.2664 47.7596 11.5724 47.1719 11.791C46.5956 12.0096 45.9627 12.1188 45.2734 12.1188C44.5841 12.1188 43.9512 12.0096 43.3749 11.791C42.7985 11.5724 42.3013 11.2664 41.8832 10.8729C41.465 10.4795 41.1373 10.015 40.9001 9.4795C40.674 8.93305 40.561 8.33745 40.561 7.6926ZM42.5612 7.6926C42.5612 8.07515 42.6234 8.43035 42.7477 8.7582C42.8833 9.08605 43.0698 9.3702 43.3071 9.61065C43.5444 9.8511 43.8269 10.0424 44.1547 10.1845C44.4937 10.3156 44.8666 10.3812 45.2734 10.3812C45.6802 10.3812 46.0475 10.3211 46.3752 10.2008C46.7143 10.0696 47.0024 9.88935 47.2398 9.65985C47.477 9.4194 47.6635 9.13525 47.7991 8.8074C47.9347 8.4795 48.0025 8.1079 48.0025 7.6926C48.0025 7.2773 47.9291 6.90575 47.7822 6.57785C47.6466 6.23905 47.4545 5.9549 47.2058 5.7254C46.9572 5.48495 46.6691 5.30465 46.3414 5.18445C46.0136 5.0533 45.6577 4.98771 45.2734 4.98771C44.8892 4.98771 44.5276 5.0533 44.1885 5.18445C43.8608 5.30465 43.5726 5.48495 43.324 5.7254C43.0867 5.9549 42.9003 6.23905 42.7646 6.57785C42.629 6.90575 42.5612 7.2773 42.5612 7.6926Z" fill="#3981F1"/>
<path d="M51.1982 3.44629H53.1306V6.90532L56.9446 3.44629H59.4702L55.1816 7.29877L59.623 11.9709H57.1482L53.775 8.46267L53.1306 9.06922V11.9709H51.1982V3.44629Z" fill="#3981F1"/>
<path d="M60.2329 3.44629H68.5391V5.18402H65.3521V11.9709H63.4199V5.18402H60.2329V3.44629Z" fill="#3981F1"/>
<path d="M68.9614 7.6926C68.9614 7.0478 69.0746 6.45765 69.3009 5.92215C69.5266 5.3757 69.8486 4.90573 70.2667 4.51229C70.6848 4.11885 71.1821 3.81284 71.7586 3.59426C72.3346 3.36475 72.9734 3.25 73.6738 3.25C74.3635 3.25 74.9961 3.36475 75.5726 3.59426C76.1604 3.81284 76.6629 4.11885 77.081 4.51229C77.4991 4.90573 77.8215 5.3757 78.0473 5.92215C78.2849 6.45765 78.4032 7.0478 78.4032 7.6926C78.4032 8.33745 78.2849 8.93305 78.0473 9.4795C77.8215 10.015 77.4991 10.4795 77.081 10.8729C76.6629 11.2664 76.1604 11.5724 75.5726 11.791C74.9961 12.0096 74.3635 12.1188 73.6738 12.1188C72.9847 12.1188 72.3516 12.0096 71.7756 11.791C71.1991 11.5724 70.7018 11.2664 70.2837 10.8729C69.8655 10.4795 69.5379 10.015 69.3009 9.4795C69.0746 8.93305 68.9614 8.33745 68.9614 7.6926ZM70.962 7.6926C70.962 8.07515 71.0242 8.43035 71.1482 8.7582C71.2839 9.08605 71.4701 9.3702 71.7077 9.61065C71.9448 9.8511 72.2277 10.0424 72.5553 10.1845C72.8942 10.3156 73.267 10.3812 73.6738 10.3812C74.0806 10.3812 74.4483 10.3211 74.7759 10.2008C75.1149 10.0696 75.4029 9.88935 75.6405 9.65985C75.8775 9.4194 76.0642 9.13525 76.1995 8.8074C76.3353 8.4795 76.4031 8.1079 76.4031 7.6926C76.4031 7.2773 76.3296 6.90575 76.1825 6.57785C76.0473 6.23905 75.8549 5.9549 75.6065 5.7254C75.3576 5.48495 75.0696 5.30465 74.742 5.18445C74.4144 5.0533 74.058 4.98771 73.6738 4.98771C73.2897 4.98771 72.9281 5.0533 72.5892 5.18445C72.2616 5.30465 71.9731 5.48495 71.7247 5.7254C71.4871 5.9549 71.3009 6.23905 71.1651 6.57785C71.0299 6.90575 70.962 7.2773 70.962 7.6926Z" fill="#3981F1"/>
<path d="M79.584 3.44672H81.5162V4.38115C81.9116 4.02049 82.3354 3.7418 82.7875 3.54508C83.2395 3.34836 83.7482 3.25 84.3134 3.25C84.9459 3.25 85.5281 3.36475 86.0594 3.59426C86.6014 3.81284 87.0648 4.12431 87.449 4.52869C87.8331 4.92213 88.133 5.3921 88.3474 5.9385C88.5624 6.47405 88.6694 7.05875 88.6694 7.6926C88.6694 8.34835 88.5511 8.94945 88.3135 9.4959C88.0877 10.0314 87.7771 10.4959 87.3811 10.8893C86.9856 11.2718 86.5109 11.5724 85.9575 11.791C85.415 12.0096 84.8328 12.1188 84.2115 12.1188C83.6576 12.1188 83.1603 12.0369 82.7196 11.8729C82.2788 11.709 81.8777 11.4795 81.5162 11.1845V15.25H79.584V3.44672ZM83.9235 10.3812C84.3077 10.3812 84.6636 10.3211 84.9912 10.2008C85.3301 10.0806 85.6243 9.90575 85.8727 9.67625C86.1211 9.4358 86.3134 9.15165 86.4492 8.82375C86.5958 8.48495 86.6693 8.10245 86.6693 7.67625C86.6693 7.2828 86.6071 6.92215 86.4831 6.59425C86.3587 6.25545 86.1776 5.9713 85.9406 5.7418C85.7143 5.50135 85.4432 5.31555 85.127 5.18445C84.8102 5.0533 84.4599 4.98771 84.0758 4.98771C83.4884 4.98771 82.9685 5.1243 82.5164 5.39755C82.0757 5.67075 81.7424 5.99865 81.5162 6.38115V8.9713C81.7424 9.43035 82.0644 9.78005 82.4825 10.0205C82.9006 10.261 83.381 10.3812 83.9235 10.3812Z" fill="#3981F1"/>
<path d="M89.6279 7.6926C89.6279 7.0478 89.7411 6.45765 89.9669 5.92215C90.1931 5.3757 90.5151 4.90573 90.9332 4.51229C91.3513 4.11885 91.8486 3.81284 92.4246 3.59426C93.0011 3.36475 93.6399 3.25 94.3403 3.25C95.0295 3.25 95.6626 3.36475 96.2391 3.59426C96.8264 3.81284 97.3294 4.11885 97.7475 4.51229C98.1656 4.90573 98.4875 5.3757 98.7138 5.92215C98.9509 6.45765 99.0697 7.0478 99.0697 7.6926C99.0697 8.33745 98.9509 8.93305 98.7138 9.4795C98.4875 10.015 98.1656 10.4795 97.7475 10.8729C97.3294 11.2664 96.8264 11.5724 96.2391 11.791C95.6626 12.0096 95.0295 12.1188 94.3403 12.1188C93.6512 12.1188 93.0181 12.0096 92.4416 11.791C91.8656 11.5724 91.3683 11.2664 90.9502 10.8729C90.5321 10.4795 90.2045 10.015 89.9669 9.4795C89.7411 8.93305 89.6279 8.33745 89.6279 7.6926ZM91.628 7.6926C91.628 8.07515 91.6902 8.43035 91.8147 8.7582C91.9505 9.08605 92.1366 9.3702 92.3742 9.61065C92.6113 9.8511 92.8936 10.0424 93.2218 10.1845C93.5607 10.3156 93.9335 10.3812 94.3403 10.3812C94.7471 10.3812 95.1143 10.3211 95.4419 10.2008C95.7814 10.0696 96.0694 9.88935 96.3064 9.65985C96.544 9.4194 96.7302 9.13525 96.866 8.8074C97.0018 8.4795 97.0696 8.1079 97.0696 7.6926C97.0696 7.2773 96.9961 6.90575 96.849 6.57785C96.7132 6.23905 96.5214 5.9549 96.2725 5.7254C96.0241 5.48495 95.7361 5.30465 95.408 5.18445C95.0804 5.0533 94.7245 4.98771 94.3403 4.98771C93.9562 4.98771 93.5946 5.0533 93.2557 5.18445C92.9276 5.30465 92.6396 5.48495 92.3912 5.7254C92.1536 5.9549 91.9674 6.23905 91.8316 6.57785C91.6959 6.90575 91.628 7.2773 91.628 7.6926Z" fill="#3981F1"/>
<path d="M100.271 3.44629H104.034C105.265 3.44629 106.192 3.61569 106.814 3.95449C107.435 4.29328 107.746 4.87798 107.746 5.70857C107.746 6.10202 107.656 6.43537 107.475 6.70857C107.294 6.98182 107.057 7.22772 106.763 7.44627C107.181 7.59932 107.492 7.85612 107.695 8.21677C107.898 8.56652 108 8.97087 108 9.42992C108 10.2824 107.69 10.9217 107.068 11.3479C106.447 11.7632 105.571 11.9709 104.44 11.9709H100.271V3.44629ZM102.203 8.44627V10.2824H104.254C104.83 10.2824 105.265 10.2113 105.559 10.0692C105.853 9.92717 106 9.69767 106 9.38072C106 9.04192 105.859 8.80147 105.576 8.65942C105.305 8.51732 104.881 8.44627 104.305 8.44627H102.203ZM102.203 5.13482V6.82332H104.474C104.87 6.82332 105.181 6.75232 105.407 6.61022C105.633 6.46817 105.746 6.24957 105.746 5.95447C105.746 5.60477 105.593 5.38072 105.288 5.28237C104.994 5.18402 104.559 5.13482 103.983 5.13482H102.203Z" fill="#3981F1"/>
</g>
<defs>
<clipPath id="clip0_131_412">
<rect width="108" height="16" fill="white"/>
</clipPath>
</defs>
</svg>
