<svg width="65" height="65" viewBox="0 0 65 65" fill="none" xmlns="http://www.w3.org/2000/svg">
<path d="M59.0909 20.6796C60.6581 20.6796 62.1611 21.3022 63.2693 22.4105C64.3774 23.5187 65 25.0218 65 26.589V38.4078C65 39.9751 64.3774 41.4781 63.2693 42.5863C62.1611 43.6946 60.6581 44.3172 59.0909 44.3172H55.9532C55.2329 50.0295 52.4528 55.2826 48.1347 59.0906C43.8166 62.8987 38.2573 64.9999 32.5 65V59.0906C37.2016 59.0906 41.7106 57.2228 45.0351 53.8982C48.3596 50.5735 50.2273 46.0643 50.2273 41.3625V23.6343C50.2273 18.9325 48.3596 14.4233 45.0351 11.0987C41.7106 7.77398 37.2016 5.9062 32.5 5.9062C27.7984 5.9062 23.2894 7.77398 19.9649 11.0987C16.6404 14.4233 14.7727 18.9325 14.7727 23.6343V44.3172H5.90909C4.3419 44.3172 2.8389 43.6946 1.73073 42.5863C0.622563 41.4781 0 39.9751 0 38.4078V26.589C0 25.0218 0.622563 23.5187 1.73073 22.4105C2.8389 21.3022 4.3419 20.6796 5.90909 20.6796H9.04682C9.76782 14.9679 12.5482 9.7156 16.8662 5.9082C21.1843 2.10079 26.7432 0 32.5 0C38.2568 0 43.8157 2.10079 48.1338 5.9082C52.4518 9.7156 55.2322 14.9679 55.9532 20.6796H59.0909ZM19.9727 43.6819L23.1045 38.6708C25.9205 40.4348 29.1772 41.3678 32.5 41.3625C35.8228 41.3678 39.0796 40.4348 41.8955 38.6708L45.0273 43.6819C41.2728 46.0343 36.9305 47.2787 32.5 47.2719C28.0695 47.2788 23.7271 46.0344 19.9727 43.6819Z" fill="#75B8EE"/>
</svg>
