<svg width="23" height="20" viewBox="0 0 23 20" fill="none" xmlns="http://www.w3.org/2000/svg">
<path d="M10.6125 19.4992C7.20022 19.4992 3.78723 19.4992 0.374919 19.4992C0.00135841 19.4992 0.000679202 19.4985 0.000679202 19.1192C0 14.2929 0 9.46726 0 4.64096C0 4.2931 0.000679189 4.29241 0.354543 4.29241C7.06098 4.29241 13.7667 4.29241 20.4732 4.29241C20.8148 4.29241 20.8155 4.2931 20.8169 4.62592C20.8175 4.82206 20.8182 5.01889 20.8169 5.21503C20.8155 5.55605 20.8148 5.5581 20.4827 5.5581C19.0482 5.55879 17.6137 5.55879 16.1786 5.55879C11.323 5.55879 6.46736 5.55879 1.61175 5.55879C1.25924 5.55879 1.25856 5.55947 1.25856 5.90391C1.25856 9.90123 1.25856 13.8986 1.25856 17.8966C1.25856 18.2321 1.25924 18.2328 1.59545 18.2328C7.59687 18.2328 13.599 18.2328 19.6004 18.2328C19.9658 18.2328 19.9665 18.2328 19.9665 17.8747C19.9665 16.6534 19.9638 15.4315 19.9672 14.2102C19.9685 13.6628 19.9074 13.7291 20.463 13.7229C20.6409 13.7209 20.8196 13.7291 20.9975 13.7222C21.1578 13.7161 21.2264 13.7755 21.2257 13.9437C21.2223 15.7205 21.221 17.4968 21.2264 19.2736C21.2271 19.5135 21.0845 19.4999 20.9255 19.4999C19.1515 19.4992 17.3774 19.4999 15.6033 19.4999C13.9399 19.4992 12.2759 19.4992 10.6125 19.4992Z" fill="white"/>
<path d="M11.4534 8.39224C13.1079 8.39224 14.7625 8.39771 16.417 8.38678C16.6737 8.38541 16.7681 8.45785 16.7464 8.71892C16.726 8.96495 16.7383 9.21371 16.7416 9.46111C16.7437 9.60258 16.6812 9.66409 16.5426 9.65794C16.4747 9.65452 16.4068 9.65862 16.3389 9.65862C13.0549 9.65862 9.77168 9.65862 6.48774 9.65794C6.11214 9.65794 6.11214 9.65725 6.11146 9.28069C6.11078 9.07566 6.12165 8.86995 6.10806 8.6663C6.0938 8.45238 6.1787 8.38678 6.38654 8.38814C7.41349 8.39634 8.43976 8.39156 9.46672 8.39156C10.1296 8.39224 10.7912 8.39224 11.4534 8.39224Z" fill="white"/>
<path d="M20.5418 6.80329C20.6219 6.81901 20.6396 6.89282 20.6708 6.94955C20.8977 7.3596 21.1252 7.76965 21.346 8.18312C21.4132 8.30818 21.5008 8.39976 21.6265 8.46742C22.0306 8.68475 22.4313 8.90823 22.8314 9.13239C22.8952 9.16861 22.9951 9.18774 22.9998 9.2718C23.0052 9.37705 22.8911 9.39072 22.8219 9.42968C22.4368 9.64564 22.0496 9.85955 21.6597 10.0673C21.511 10.1466 21.4037 10.2552 21.3249 10.4042C21.113 10.8033 20.8963 11.1997 20.6776 11.5954C20.5547 11.8182 20.5296 11.8182 20.4093 11.6009C20.1995 11.2202 19.9889 10.8396 19.7892 10.4534C19.6914 10.2641 19.5597 10.1281 19.3674 10.0304C18.9817 9.83358 18.6088 9.61215 18.225 9.41054C18.0308 9.30871 18.0545 9.2431 18.2305 9.14879C18.6421 8.92805 19.0469 8.69431 19.4578 8.47152C19.5828 8.40386 19.6717 8.31297 19.7383 8.18722C19.959 7.77375 20.1852 7.36301 20.4114 6.95228C20.4447 6.89351 20.4637 6.82175 20.5418 6.80329Z" fill="white"/>
<path d="M13.4638 12.4921C14.4561 12.4921 15.4491 12.4982 16.4414 12.488C16.6724 12.4852 16.7634 12.5543 16.7457 12.7921C16.7287 13.0299 16.7335 13.2705 16.7444 13.509C16.7525 13.6976 16.6805 13.7632 16.4937 13.7612C15.7643 13.7544 15.0348 13.7591 14.3054 13.7591C13.0332 13.7591 11.7604 13.7544 10.4882 13.7632C10.258 13.7646 10.1663 13.6976 10.184 13.4591C10.2009 13.2302 10.1982 12.9978 10.184 12.7682C10.171 12.5563 10.2519 12.4873 10.4611 12.4887C11.4622 12.4969 12.4627 12.4921 13.4638 12.4921Z" fill="white"/>
<path d="M6.22624 15.2497C6.22964 15.2599 6.22081 15.2251 6.20519 15.1936C6.1821 15.1485 6.14678 15.1082 6.12912 15.061C5.9403 14.5738 5.60477 14.2382 5.11915 14.0496C5.04579 14.0209 4.93916 13.9901 4.93644 13.8924C4.93304 13.7906 5.04307 13.7646 5.11575 13.7366C5.60953 13.5432 5.95049 13.2035 6.13523 12.7026C6.16036 12.6342 6.19161 12.5413 6.27379 12.5324C6.38042 12.5215 6.38925 12.6383 6.43748 12.7026C6.44223 12.7094 6.44631 12.7176 6.44902 12.7251C6.62765 13.2076 6.95774 13.5363 7.43319 13.7256C7.51265 13.7571 7.63355 13.7831 7.63219 13.8951C7.63083 13.9901 7.52216 14.0223 7.44813 14.051C6.96182 14.2396 6.63512 14.5806 6.44019 15.0651C6.37159 15.234 6.32948 15.2524 6.22624 15.2497Z" fill="white"/>
<path d="M17.5608 1.82048C17.5472 1.83484 17.5282 1.86149 17.503 1.88131C17.4698 1.90728 17.4338 1.93393 17.395 1.94828C16.9101 2.12256 16.6017 2.467 16.4007 2.93787C16.3015 3.16955 16.2587 3.1593 16.1344 2.94471C16.1304 2.93719 16.1249 2.93036 16.1222 2.92216C15.9388 2.467 15.64 2.13076 15.1713 1.95785C15.098 1.93051 14.9893 1.89976 14.9812 1.80818C14.9716 1.70499 15.0871 1.68038 15.1584 1.65236C15.6386 1.46647 15.9477 1.11656 16.1392 0.64637C16.2166 0.455696 16.3083 0.448178 16.3973 0.64227C16.4007 0.649787 16.4075 0.656621 16.4102 0.664139C16.5902 1.14663 16.9264 1.46647 17.3978 1.66125C17.5628 1.73027 17.5628 1.75898 17.5608 1.82048Z" fill="white"/>
<path d="M22.6874 2.77795C22.6779 2.84493 22.6276 2.86612 22.5841 2.88799C22.4191 2.97 22.2914 3.08481 22.214 3.2584C22.1427 3.41832 22.0584 3.38962 21.9898 3.25225C21.9063 3.08618 21.7854 2.96248 21.6156 2.88457C21.5062 2.83468 21.4567 2.7636 21.6007 2.69663C21.7868 2.61052 21.9219 2.48272 22.0048 2.29204C22.0347 2.22302 22.1046 2.13144 22.1664 2.2483C22.2792 2.46085 22.4306 2.62008 22.646 2.7226C22.665 2.73285 22.6752 2.76224 22.6874 2.77795Z" fill="white"/>
</svg>
